<svg width="186" height="186" viewBox="0 0 186 186" fill="none" xmlns="http://www.w3.org/2000/svg">
<rect width="186" height="186" rx="12" fill="#e9631c80" fill-opacity="0.5"/>
<path d="M65.375 44C60.1992 44 56 48.1572 56 53.2812V133.719C56 138.843 60.1992 143 65.375 143H84.125V127.531C84.125 122.407 88.3242 118.25 93.5 118.25C98.6758 118.25 102.875 122.407 102.875 127.531V143H121.625C126.801 143 131 138.843 131 133.719V53.2812C131 48.1572 126.801 44 121.625 44H65.375ZM68.5 90.4062C68.5 88.7047 69.9062 87.3125 71.625 87.3125H77.875C79.5938 87.3125 81 88.7047 81 90.4062V96.5938C81 98.2953 79.5938 99.6875 77.875 99.6875H71.625C69.9062 99.6875 68.5 98.2953 68.5 96.5938V90.4062ZM90.375 87.3125H96.625C98.3438 87.3125 99.75 88.7047 99.75 90.4062V96.5938C99.75 98.2953 98.3438 99.6875 96.625 99.6875H90.375C88.6562 99.6875 87.25 98.2953 87.25 96.5938V90.4062C87.25 88.7047 88.6562 87.3125 90.375 87.3125ZM106 90.4062C106 88.7047 107.406 87.3125 109.125 87.3125H115.375C117.094 87.3125 118.5 88.7047 118.5 90.4062V96.5938C118.5 98.2953 117.094 99.6875 115.375 99.6875H109.125C107.406 99.6875 106 98.2953 106 96.5938V90.4062ZM71.625 62.5625H77.875C79.5938 62.5625 81 63.9547 81 65.6562V71.8438C81 73.5453 79.5938 74.9375 77.875 74.9375H71.625C69.9062 74.9375 68.5 73.5453 68.5 71.8438V65.6562C68.5 63.9547 69.9062 62.5625 71.625 62.5625ZM87.25 65.6562C87.25 63.9547 88.6562 62.5625 90.375 62.5625H96.625C98.3438 62.5625 99.75 63.9547 99.75 65.6562V71.8438C99.75 73.5453 98.3438 74.9375 96.625 74.9375H90.375C88.6562 74.9375 87.25 73.5453 87.25 71.8438V65.6562ZM109.125 62.5625H115.375C117.094 62.5625 118.5 63.9547 118.5 65.6562V71.8438C118.5 73.5453 117.094 74.9375 115.375 74.9375H109.125C107.406 74.9375 106 73.5453 106 71.8438V65.6562C106 63.9547 107.406 62.5625 109.125 62.5625Z" fill="currenColor" fill-opacity="0.7"/>
</svg>
