<svg width="186" height="186" viewBox="0 0 186 186" fill="none" xmlns="http://www.w3.org/2000/svg">
<rect width="186" height="186" rx="12" fill="#e9631c80" fill-opacity="0.5"/>
<path d="M86.7598 66.9375H74.9062H68.8965H66.9375V68.3984V74.9062V81.6133V96.3887L51.0332 84.6182C51.2988 81.6133 52.8428 78.8242 55.2998 77.0146L58.9688 74.292V66.9375C58.9688 62.5381 62.5381 58.9688 66.9375 58.9688H79.6543L87.9385 52.8428C89.5488 51.6475 91.4912 51 93.5 51C95.5088 51 97.4512 51.6475 99.0615 52.8262L107.346 58.9688H120.062C124.462 58.9688 128.031 62.5381 128.031 66.9375V74.292L131.7 77.0146C134.157 78.8242 135.701 81.6133 135.967 84.6182L120.062 96.3887V81.6133V74.9062V68.3984V66.9375H118.104H112.094H100.24H86.7432H86.7598ZM51 125.375V91.1924L87.125 117.954C88.9678 119.315 91.209 120.062 93.5 120.062C95.791 120.062 98.0322 119.332 99.875 117.954L136 91.1924V125.375C136 131.235 131.235 136 125.375 136H61.625C55.7646 136 51 131.235 51 125.375ZM80.2188 77.5625H106.781C108.242 77.5625 109.438 78.7578 109.438 80.2188C109.438 81.6797 108.242 82.875 106.781 82.875H80.2188C78.7578 82.875 77.5625 81.6797 77.5625 80.2188C77.5625 78.7578 78.7578 77.5625 80.2188 77.5625ZM80.2188 88.1875H106.781C108.242 88.1875 109.438 89.3828 109.438 90.8438C109.438 92.3047 108.242 93.5 106.781 93.5H80.2188C78.7578 93.5 77.5625 92.3047 77.5625 90.8438C77.5625 89.3828 78.7578 88.1875 80.2188 88.1875Z" fill="currenColor" fill-opacity="0.7"/>
</svg>
