<svg width="186" height="186" viewBox="0 0 186 186" fill="none" xmlns="http://www.w3.org/2000/svg">
<rect width="186" height="186" rx="12" fill="#5A4083" fill-opacity="0.5"/>
<path d="M93.5525 65.4785L77.8225 78.3422C75.2062 80.4752 74.7025 84.3146 76.685 87.0548C78.7812 89.9753 82.86 90.5496 85.6712 88.3346L101.807 75.6677C102.945 74.7817 104.57 74.9786 105.464 76.1271C106.357 77.2757 106.146 78.9165 105.009 79.8189L101.612 82.477L130.407 109.255H137.2C141.506 109.255 145 105.727 145 101.379V80.3768C145 76.0287 141.506 72.501 137.2 72.501H124.85H124.2H124.086L123.452 72.0908L111.655 64.4612C109.169 62.8532 106.26 62 103.302 62C99.76 62 96.315 63.2306 93.5525 65.4785ZM97.2575 85.8898L88.8562 92.4857C83.7375 96.5221 76.3112 95.472 72.4762 90.1558C68.8687 85.1514 69.7787 78.1617 74.54 74.2731L88.06 63.2306C86.175 62.4266 84.1437 62.0164 82.08 62.0164C79.025 62 76.0512 62.9188 73.5 64.6253L61.8 72.501H48.8C44.4937 72.501 41 76.0287 41 80.3768V101.379C41 105.727 44.4937 109.255 48.8 109.255H66.3825L81.235 122.939C84.42 125.876 89.3437 125.646 92.2525 122.43C93.1462 121.429 93.7475 120.264 94.0562 119.05L96.8187 121.61C99.9875 124.547 104.927 124.333 107.836 121.134C108.567 120.33 109.104 119.395 109.445 118.427C112.597 120.56 116.887 120.117 119.536 117.196C122.445 113.996 122.234 109.008 119.065 106.071L97.2575 85.8898Z" fill="#333333" fill-opacity="0.7"/>
</svg>
