<svg width="186" height="186" viewBox="0 0 186 186" fill="none" xmlns="http://www.w3.org/2000/svg">
<rect width="186" height="186" rx="12" fill="#e9631c80" fill-opacity="0.5"/>
<path d="M33 69.0339C33 62.3965 38.3813 57 45 57H81H90H93H141C147.619 57 153 62.3965 153 69.0339V117.169C153 123.807 147.619 129.203 141 129.203H93H90H81H45C38.3813 129.203 33 123.807 33 117.169V69.0339ZM93 69.0339V117.169H141V69.0339H93ZM66.4313 78.0405C65.8313 76.6867 64.4813 75.803 63 75.803C61.5187 75.803 60.1687 76.6867 59.5687 78.0405L47.5687 105.117C46.725 107.016 47.5875 109.235 49.4813 110.081C51.375 110.927 53.5875 110.062 54.4313 108.163L56.1 104.383H69.9L71.5687 108.163C72.4125 110.062 74.625 110.908 76.5188 110.081C78.4125 109.253 79.2563 107.016 78.4313 105.117L66.4313 78.0405ZM63 88.8146L66.5625 96.8623H59.4375L63 88.8146ZM117 75.803C119.062 75.803 120.75 77.4952 120.75 79.5636V80.3157H129H132C134.062 80.3157 135.75 82.0079 135.75 84.0763C135.75 86.1446 134.062 87.8369 132 87.8369H131.625L131.325 88.683C129.656 93.2709 127.125 97.4452 123.9 100.98C124.069 101.093 124.238 101.187 124.406 101.281L127.95 103.406C129.731 104.477 130.294 106.79 129.244 108.558C128.194 110.325 125.869 110.908 124.106 109.855L120.562 107.73C119.719 107.223 118.912 106.696 118.106 106.132C116.119 107.542 114 108.765 111.731 109.78L111.056 110.081C109.162 110.927 106.95 110.062 106.106 108.163C105.262 106.264 106.125 104.045 108.019 103.199L108.694 102.898C109.894 102.353 111.056 101.751 112.163 101.055L109.875 98.7614C108.412 97.2948 108.412 94.9068 109.875 93.4401C111.338 91.9735 113.719 91.9735 115.181 93.4401L117.919 96.1854L118.012 96.2794C120.337 93.8162 122.231 90.9582 123.6 87.8181L117 87.8369H103.5C101.438 87.8369 99.75 86.1446 99.75 84.0763C99.75 82.0079 101.438 80.3157 103.5 80.3157H113.25V79.5636C113.25 77.4952 114.938 75.803 117 75.803Z" fill="currenColor" fill-opacity="0.7"/>
</svg>
