<svg width="186" height="186" viewBox="0 0 186 186" fill="none" xmlns="http://www.w3.org/2000/svg">
<rect width="186" height="186" rx="12" fill="#5A4083" fill-opacity="0.5"/>
<path d="M97.7586 136.933C106.977 125.367 128 97.3349 128 81.5895C128 62.4932 112.547 47 93.5 47C74.4531 47 59 62.4932 59 81.5895C59 97.3349 80.0234 125.367 89.2414 136.933C91.4516 139.689 95.5484 139.689 97.7586 136.933ZM93.5 70.0597C96.55 70.0597 99.4751 71.2744 101.632 73.4367C103.788 75.5989 105 78.5316 105 81.5895C105 84.6474 103.788 87.5801 101.632 89.7423C99.4751 91.9046 96.55 93.1194 93.5 93.1194C90.45 93.1194 87.5249 91.9046 85.3683 89.7423C83.2116 87.5801 82 84.6474 82 81.5895C82 78.5316 83.2116 75.5989 85.3683 73.4367C87.5249 71.2744 90.45 70.0597 93.5 70.0597Z" fill="#333333" fill-opacity="0.7"/>
</svg>
