<svg width="186" height="186" viewBox="0 0 186 186" fill="none" xmlns="http://www.w3.org/2000/svg">
<rect width="186" height="186" rx="12" fill="#5A4083" fill-opacity="0.5"/>
<path d="M78.3214 71.4922V80.6562H108.679V71.4922C108.679 63.0536 101.886 56.2188 93.5 56.2188C85.1138 56.2188 78.3214 63.0536 78.3214 71.4922ZM66.1786 80.6562V71.4922C66.1786 56.3142 78.4163 44 93.5 44C108.584 44 120.821 56.3142 120.821 71.4922V80.6562H123.857C130.555 80.6562 136 86.1356 136 92.875V129.531C136 136.271 130.555 141.75 123.857 141.75H63.1429C56.4453 141.75 51 136.271 51 129.531V92.875C51 86.1356 56.4453 80.6562 63.1429 80.6562H66.1786Z" fill="#333333" fill-opacity="0.7"/>
</svg>
