<svg width="186" height="186" viewBox="0 0 186 186" fill="none" xmlns="http://www.w3.org/2000/svg">
<rect width="186" height="186" rx="12" fill="#5A4083" fill-opacity="0.5"/>
<path d="M99.1451 54C76.962 54 59 71.4629 59 93C59 114.537 76.962 132 99.1451 132C110.03 132 119.891 127.787 127.13 120.962C128.028 120.108 128.261 118.785 127.687 117.706C127.112 116.626 125.873 116.017 124.633 116.226C122.873 116.522 121.077 116.679 119.227 116.679C101.821 116.679 87.7033 102.959 87.7033 86.0357C87.7033 74.5795 94.1696 64.6031 103.743 59.3451C104.839 58.7357 105.396 57.517 105.126 56.333C104.857 55.1491 103.815 54.2612 102.558 54.1567C101.426 54.0696 100.295 54.0174 99.1451 54.0174V54Z" fill="#333333" fill-opacity="0.7"/>
</svg>
