<svg width="186" height="186" viewBox="0 0 186 186" fill="none" xmlns="http://www.w3.org/2000/svg">
<rect width="186" height="186" rx="12" fill="#5A4083" fill-opacity="0.5"/>
<path d="M78.3748 55.0875C77.0965 51.9998 73.7265 50.3563 70.506 51.2362L55.8972 55.2204C53.0087 56.0172 51 58.6401 51 61.6283C51 102.699 84.3013 136 125.372 136C128.36 136 130.983 133.991 131.78 131.103L135.764 116.494C136.644 113.273 135 109.903 131.912 108.625L115.976 101.985C113.27 100.856 110.132 101.636 108.289 103.911L101.583 112.095C89.8957 106.567 80.4333 97.1043 74.9052 85.4173L83.0894 78.7271C85.3637 76.8678 86.144 73.7469 85.0151 71.0409L78.3748 55.1041V55.0875Z" fill="#333333" fill-opacity="0.7"/>
</svg>
